<?xml version="1.0" standalone="no"?>
<!DOCTYPE svg PUBLIC "-//W3C//DTD SVG 20010904//EN"
 "http://www.w3.org/TR/2001/REC-SVG-20010904/DTD/svg10.dtd">
<svg version="1.0" xmlns="http://www.w3.org/2000/svg"
 width="700.000000pt" height="700.000000pt" viewBox="0 0 700.000000 700.000000"
 preserveAspectRatio="xMidYMid meet">
<metadata>
Created by potrace 1.11, written by Peter Selinger 2001-2013
</metadata>
<g transform="translate(0.000000,700.000000) scale(0.100000,-0.100000)"
fill="#000000" stroke="none">
<path d="M2245 6692 c-27 -10 -261 -139 -520 -287 -259 -148 -483 -276 -498
-284 -16 -9 -36 -21 -45 -26 -9 -6 -60 -34 -112 -64 -52 -30 -108 -62 -125
-71 -16 -10 -201 -115 -409 -234 -209 -120 -396 -229 -416 -243 -47 -34 -83
-86 -104 -149 -15 -46 -16 -238 -14 -2440 l3 -2389 24 -45 c54 -104 161 -169
272 -165 77 3 86 7 355 161 126 72 250 143 275 156 24 14 73 42 109 63 36 21
83 48 105 60 22 13 300 172 618 353 l579 331 1121 -560 c1240 -620 1173 -591
1288 -552 30 10 468 255 974 545 506 289 936 534 955 545 68 39 205 123 220
135 31 26 68 84 84 133 15 47 16 250 14 2440 l-3 2390 -23 42 c-55 104 -146
164 -249 166 -102 2 -99 3 -443 -195 -129 -74 -255 -146 -280 -160 -25 -14
-85 -48 -133 -77 -49 -28 -90 -51 -92 -51 -2 0 -36 -19 -77 -43 -40 -24 -93
-55 -118 -69 -25 -14 -242 -138 -483 -276 l-439 -251 -1121 560 c-1045 523
-1126 561 -1182 565 -42 3 -75 -1 -110 -14z m1249 -1182 c473 -236 864 -431
870 -433 12 -4 17 -4005 5 -4012 -3 -2 -397 192 -875 431 l-869 435 0 2004 c0
1103 2 2005 5 2005 3 0 392 -193 864 -430z m-1452 -1594 c-1 -1092 -3 -1990
-7 -1996 -3 -5 -43 -30 -88 -55 -45 -25 -89 -50 -97 -55 -14 -9 -144 -84 -230
-132 -55 -31 -873 -499 -890 -509 -47 -28 -139 -79 -142 -79 -2 0 -3 898 -3
1996 l0 1995 234 135 c129 73 236 134 237 134 1 0 51 29 112 64 61 36 131 76
154 89 38 22 213 121 293 167 279 160 420 238 423 235 2 -2 4 -897 4 -1989z
m4373 0 c0 -1097 -2 -1996 -5 -1999 -4 -4 -324 -187 -870 -499 -87 -50 -269
-153 -310 -176 -25 -14 -62 -36 -82 -49 -21 -12 -41 -23 -44 -23 -4 0 -30 -15
-58 -33 -75 -49 -86 -52 -87 -19 0 15 0 911 -1 1991 0 1636 2 1965 14 1976 7
6 76 48 153 92 77 43 149 85 160 91 72 42 560 320 603 343 28 16 69 39 90 52
20 13 62 37 92 54 68 37 180 101 200 113 39 25 136 79 140 80 3 0 5 -897 5
-1994z"/>
</g>
</svg>
